<?xml version="1.0" encoding="UTF-8"?><svg xmlns="http://www.w3.org/2000/svg" xmlns:xlink="http://www.w3.org/1999/xlink" fill-opacity="1" color-rendering="auto" color-interpolation="auto" text-rendering="auto" stroke="black" stroke-linecap="square" width="810" stroke-miterlimit="10" shape-rendering="auto" stroke-opacity="1" fill="black" stroke-dasharray="none" font-weight="normal" stroke-width="1" height="242" font-family="'Dialog'" font-style="normal" stroke-linejoin="miter" font-size="12px" stroke-dashoffset="0" image-rendering="auto">
  <!--Generated by ySVG 2.5-->
  <defs id="genericDefs"/>
  <g>
    <defs id="defs1">
      <clipPath clipPathUnits="userSpaceOnUse" id="clipPath1">
        <path d="M0 0 L810 0 L810 242 L0 242 L0 0 Z"/>
      </clipPath>
      <clipPath clipPathUnits="userSpaceOnUse" id="clipPath2">
        <path d="M-3 244 L807 244 L807 486 L-3 486 L-3 244 Z"/>
      </clipPath>
      <clipPath clipPathUnits="userSpaceOnUse" id="clipPath3">
        <path d="M0 0 L0 98 L212 98 L212 0 Z"/>
      </clipPath>
      <clipPath clipPathUnits="userSpaceOnUse" id="clipPath4">
        <path d="M0 0 L0 70 L195 70 L195 0 Z"/>
      </clipPath>
    </defs>
    <g fill="white" text-rendering="geometricPrecision" shape-rendering="geometricPrecision" transform="matrix(1,0,0,1,3,-244)" stroke="white">
      <rect x="12" width="779.84" height="212" y="259" clip-path="url(#clipPath2)" stroke="none"/>
    </g>
    <g text-rendering="geometricPrecision" stroke-miterlimit="1.45" shape-rendering="geometricPrecision" transform="matrix(1,0,0,1,3,-244)" stroke-linecap="butt">
      <rect fill="none" x="12" width="779.84" height="212" y="259" clip-path="url(#clipPath2)"/>
      <text x="18" font-size="16px" y="279.4844" clip-path="url(#clipPath2)" font-family="'Arial'" stroke="none" font-weight="bold" xml:space="preserve">Dataflow HDL</text>
    </g>
    <g fill="white" text-rendering="geometricPrecision" shape-rendering="geometricPrecision" transform="matrix(1,0,0,1,3,-244)" stroke="white">
      <rect x="12" width="567.824" height="178.832" y="292.168" clip-path="url(#clipPath2)" stroke="none"/>
    </g>
    <g text-rendering="geometricPrecision" stroke-miterlimit="1.45" shape-rendering="geometricPrecision" transform="matrix(1,0,0,1,3,-244)" stroke-linecap="butt">
      <rect fill="none" x="12" width="567.824" height="178.832" y="292.168" clip-path="url(#clipPath2)"/>
      <text x="18" font-size="16px" y="312.6524" clip-path="url(#clipPath2)" font-family="'Arial'" stroke="none" font-weight="bold" xml:space="preserve">High-level RTL</text>
    </g>
    <g fill="white" text-rendering="geometricPrecision" shape-rendering="geometricPrecision" transform="matrix(1,0,0,1,3,-244)" stroke="white">
      <rect x="12" width="385.1056" height="146.08" y="324.92" clip-path="url(#clipPath2)" stroke="none"/>
    </g>
    <g text-rendering="geometricPrecision" stroke-miterlimit="1.45" shape-rendering="geometricPrecision" transform="matrix(1,0,0,1,3,-244)" stroke-linecap="butt">
      <rect fill="none" x="12" width="385.1056" height="146.08" y="324.92" clip-path="url(#clipPath2)"/>
      <text x="18" font-size="16px" y="345.4044" clip-path="url(#clipPath2)" font-family="'Arial'" stroke="none" font-weight="bold" xml:space="preserve">RTL</text>
    </g>
    <g fill="white" text-rendering="geometricPrecision" shape-rendering="geometricPrecision" transform="matrix(1,0,0,1,3,-244)" stroke="white">
      <rect x="12" width="146" height="112.48" y="358.52" clip-path="url(#clipPath2)" stroke="none"/>
    </g>
    <g text-rendering="geometricPrecision" stroke-miterlimit="1.45" shape-rendering="geometricPrecision" transform="matrix(1,0,0,1,3,-244)" stroke-linecap="butt">
      <rect fill="none" x="12" width="146" height="112.48" y="358.52" clip-path="url(#clipPath2)"/>
      <text x="18" font-size="16px" y="379.0044" clip-path="url(#clipPath2)" font-family="'Arial'" stroke="none" font-weight="bold" xml:space="preserve">Netlist/Gate-level</text>
      <text x="139.6" y="278.6424" clip-path="url(#clipPath2)" fill="blue" font-family="'Arial'" stroke="none" xml:space="preserve">DFiant</text>
    </g>
    <g fill="white" text-rendering="geometricPrecision" shape-rendering="geometricPrecision" transform="matrix(1,0,0,1,3,-244)" stroke="white">
      <rect x="17.5" width="135" height="64.384" y="382.568" clip-path="url(#clipPath2)" stroke="none"/>
    </g>
    <g text-rendering="geometricPrecision" stroke-miterlimit="1.45" shape-rendering="geometricPrecision" font-family="'Arial'" transform="matrix(1,0,0,1,3,-244)" stroke-linecap="butt">
      <text x="20.2979" xml:space="preserve" y="405.5139" clip-path="url(#clipPath2)" stroke="none">Components, Instances,</text>
      <text x="16.9756" xml:space="preserve" y="418.9202" clip-path="url(#clipPath2)" stroke="none">Ports, Wire Connections, </text>
      <text x="27.6455" xml:space="preserve" y="432.3264" clip-path="url(#clipPath2)" stroke="none">Hierarchy/Flat/Folded</text>
    </g>
    <g fill="white" text-rendering="geometricPrecision" shape-rendering="geometricPrecision" transform="matrix(1,0,0,1,3,-244)" stroke="white">
      <rect x="161.072" width="232.8032" height="112.48" y="355.448" clip-path="url(#clipPath2)" stroke="none"/>
    </g>
    <g text-rendering="geometricPrecision" stroke-miterlimit="1.45" shape-rendering="geometricPrecision" font-family="'Arial'" transform="matrix(1,0,0,1,3,-244) translate(167,361)" stroke-linecap="butt">
      <text x="0" xml:space="preserve" y="11" clip-path="url(#clipPath3)" stroke="none">* </text>
      <text x="8" xml:space="preserve" y="11" clip-path="url(#clipPath3)" stroke="none">Combinational Operations</text>
      <line y2="12" fill="none" x1="8" clip-path="url(#clipPath3)" x2="151" y1="12"/>
      <text x="151" xml:space="preserve" y="11" clip-path="url(#clipPath3)" stroke="none">:</text>
      <text x="154" xml:space="preserve" y="11" clip-path="url(#clipPath3)" stroke="none"> </text>
      <text x="0" xml:space="preserve" y="25" clip-path="url(#clipPath3)" stroke="none">  Arithmetic, Logic, Conditional</text>
      <text x="165" xml:space="preserve" y="25" clip-path="url(#clipPath3)" stroke="none"> </text>
      <text x="0" xml:space="preserve" y="39" clip-path="url(#clipPath3)" stroke="none">* </text>
      <text x="8" xml:space="preserve" y="39" clip-path="url(#clipPath3)" stroke="none">Registers</text>
      <line y2="40" fill="none" x1="8" clip-path="url(#clipPath3)" x2="60" y1="40"/>
      <text x="60" xml:space="preserve" y="39" clip-path="url(#clipPath3)" stroke="none">: Pipeline, Path-Balance,</text>
      <text x="194" xml:space="preserve" y="39" clip-path="url(#clipPath3)" stroke="none"> </text>
      <text x="0" xml:space="preserve" y="53" clip-path="url(#clipPath3)" stroke="none">  Derived State, Regular State,</text>
      <text x="164" xml:space="preserve" y="53" clip-path="url(#clipPath3)" stroke="none"> </text>
      <text x="0" xml:space="preserve" y="67" clip-path="url(#clipPath3)" stroke="none">  Time Delay, Clock Gen, Synchronizer</text>
      <text x="209" xml:space="preserve" y="67" clip-path="url(#clipPath3)" stroke="none"> </text>
      <text x="0" xml:space="preserve" y="81" clip-path="url(#clipPath3)" stroke="none">* </text>
      <text x="8" xml:space="preserve" y="81" clip-path="url(#clipPath3)" stroke="none">Clocks</text>
      <line y2="82" fill="none" x1="8" clip-path="url(#clipPath3)" x2="45" y1="82"/>
      <text x="45" xml:space="preserve" y="81" clip-path="url(#clipPath3)" stroke="none">: External, PLL (via blackbox)</text>
      <text x="203" xml:space="preserve" y="81" clip-path="url(#clipPath3)" stroke="none"> </text>
      <text x="0" xml:space="preserve" y="95" clip-path="url(#clipPath3)" stroke="none">* </text>
      <text x="8" xml:space="preserve" y="95" clip-path="url(#clipPath3)" stroke="none">Resets</text>
      <line y2="96" fill="none" x1="8" clip-path="url(#clipPath3)" x2="46" y1="96"/>
      <text x="46" xml:space="preserve" y="95" clip-path="url(#clipPath3)" stroke="none">: Async, Sync, Active High/Low</text>
    </g>
    <g stroke-linecap="butt" transform="matrix(1,0,0,1,3,-244)" fill="blue" text-rendering="geometricPrecision" font-family="'Arial'" shape-rendering="geometricPrecision" stroke="blue" stroke-miterlimit="1.45">
      <text x="140.6" xml:space="preserve" y="312.8886" clip-path="url(#clipPath2)" stroke="none">Chisel, SpinalHDL, VeriScala, PyRTL, Migen, MyHDL, Bluespec, Cx</text>
      <text x="140.648" xml:space="preserve" y="344.3335" clip-path="url(#clipPath2)" stroke="none">VHDL, Verilog, SystemVerilog</text>
    </g>
    <g fill="white" text-rendering="geometricPrecision" shape-rendering="geometricPrecision" transform="matrix(1,0,0,1,3,-244)" stroke="white">
      <rect x="587.552" width="199.0112" height="112.48" y="355.448" clip-path="url(#clipPath2)" stroke="none"/>
    </g>
    <g text-rendering="geometricPrecision" stroke-miterlimit="1.45" shape-rendering="geometricPrecision" font-family="'Arial'" transform="matrix(1,0,0,1,3,-244) translate(593,361)" stroke-linecap="butt">
      <text x="0" xml:space="preserve" y="11" clip-path="url(#clipPath4)" stroke="none">* </text>
      <text x="8" xml:space="preserve" y="11" clip-path="url(#clipPath4)" stroke="none">Ordered Operations</text>
      <line y2="12" fill="none" x1="8" clip-path="url(#clipPath4)" x2="116" y1="12"/>
      <text x="116" xml:space="preserve" y="11" clip-path="url(#clipPath4)" stroke="none">:</text>
      <text x="119" xml:space="preserve" y="11" clip-path="url(#clipPath4)" stroke="none"> </text>
      <text x="0" xml:space="preserve" y="25" clip-path="url(#clipPath4)" stroke="none">  Arithmetic, Logic, Conditional</text>
      <text x="165" xml:space="preserve" y="25" clip-path="url(#clipPath4)" stroke="none"> </text>
      <text x="0" xml:space="preserve" y="39" clip-path="url(#clipPath4)" stroke="none">* Dataflow History Access</text>
      <text x="139" xml:space="preserve" y="39" clip-path="url(#clipPath4)" stroke="none"> </text>
      <text x="0" xml:space="preserve" y="53" clip-path="url(#clipPath4)" stroke="none">* Auto Pipelining, Auto Flow-Control</text>
      <text x="195" xml:space="preserve" y="53" clip-path="url(#clipPath4)" stroke="none"> </text>
      <text x="0" xml:space="preserve" y="67" clip-path="url(#clipPath4)" stroke="none">* Timers</text>
    </g>
    <g fill="white" text-rendering="geometricPrecision" shape-rendering="geometricPrecision" transform="matrix(1,0,0,1,3,-244)" stroke="white">
      <rect x="400.304" width="175.264" height="64.384" y="379.496" clip-path="url(#clipPath2)" stroke="none"/>
    </g>
    <g stroke-linecap="butt" transform="matrix(1,0,0,1,3,-244)" text-rendering="geometricPrecision" font-family="'Arial'" shape-rendering="geometricPrecision" font-style="italic" stroke-miterlimit="1.45">
      <text x="400.8745" xml:space="preserve" y="395.7388" clip-path="url(#clipPath2)" stroke="none">RTL foundations do not change, </text>
      <text x="420.5678" xml:space="preserve" y="409.145" clip-path="url(#clipPath2)" stroke="none">but hardware is easier to </text>
      <text x="405.228" xml:space="preserve" y="422.5513" clip-path="url(#clipPath2)" stroke="none">generate or can be implicit like </text>
      <text x="441.5825" xml:space="preserve" y="435.9575" clip-path="url(#clipPath2)" stroke="none">clocks and resets</text>
    </g>
  </g>
</svg>
