<?xml version="1.0" encoding="UTF-8"?><svg xmlns="http://www.w3.org/2000/svg" xmlns:xlink="http://www.w3.org/1999/xlink" fill-opacity="1" color-rendering="auto" color-interpolation="auto" text-rendering="auto" stroke="black" stroke-linecap="square" width="310" stroke-miterlimit="10" shape-rendering="auto" stroke-opacity="1" fill="black" stroke-dasharray="none" font-weight="normal" stroke-width="1" height="182" font-family="'Dialog'" font-style="normal" stroke-linejoin="miter" font-size="12px" stroke-dashoffset="0" image-rendering="auto">
  <!--Generated by ySVG 2.5-->
  <defs id="genericDefs"/>
  <g>
    <defs id="defs1">
      <clipPath clipPathUnits="userSpaceOnUse" id="clipPath1">
        <path d="M0 0 L310 0 L310 182 L0 182 L0 0 Z"/>
      </clipPath>
      <clipPath clipPathUnits="userSpaceOnUse" id="clipPath2">
        <path d="M-559 -292 L-249 -292 L-249 -110 L-559 -110 L-559 -292 Z"/>
      </clipPath>
    </defs>
    <g fill="white" text-rendering="geometricPrecision" shape-rendering="geometricPrecision" transform="translate(559,292)" stroke="white">
      <rect x="-559" width="310" height="182" y="-292" clip-path="url(#clipPath2)" stroke="none"/>
    </g>
    <g fill="rgb(204,255,255)" text-rendering="geometricPrecision" shape-rendering="geometricPrecision" transform="matrix(1,0,0,1,559,292)" stroke="rgb(204,255,255)">
      <rect x="-544.17" width="278.6848" height="180.48" y="-291.0613" clip-path="url(#clipPath2)" stroke="none"/>
    </g>
    <g text-rendering="geometricPrecision" stroke-miterlimit="1.45" stroke-width="2" shape-rendering="geometricPrecision" transform="matrix(1,0,0,1,559,292)" stroke-linecap="butt">
      <rect fill="none" x="-544.17" width="278.6848" height="180.48" y="-291.0613" clip-path="url(#clipPath2)"/>
    </g>
    <g fill="rgb(255,204,0)" text-rendering="geometricPrecision" shape-rendering="geometricPrecision" transform="matrix(1,0,0,1,559,292)" stroke="rgb(255,204,0)">
      <path d="M-487.3276 -270.8214 L-472.3276 -285.8214 L-457.3276 -270.8214 L-472.3276 -255.8213 Z" fill-rule="evenodd" clip-path="url(#clipPath2)" stroke="none"/>
    </g>
    <g text-rendering="geometricPrecision" stroke-miterlimit="1.45" shape-rendering="geometricPrecision" transform="matrix(1,0,0,1,559,292)" stroke-linecap="butt">
      <path fill="none" d="M-487.3276 -270.8214 L-472.3276 -285.8214 L-457.3276 -270.8214 L-472.3276 -255.8213 Z" fill-rule="evenodd" clip-path="url(#clipPath2)"/>
      <text x="-479.1684" xml:space="preserve" y="-266.6612" clip-path="url(#clipPath2)" font-family="'Arial'" stroke="none">+5</text>
      <text x="-439.8447" font-size="30px" y="-195.7979" clip-path="url(#clipPath2)" font-family="'Arial'" stroke="none" xml:space="preserve">Conc</text>
    </g>
    <g fill="rgb(255,204,0)" text-rendering="geometricPrecision" shape-rendering="geometricPrecision" transform="matrix(1,0,0,1,559,292)" stroke="rgb(255,204,0)">
      <path d="M-558.17 -278.8214 L-531.17 -278.8214 L-528.17 -270.8214 L-531.17 -262.8214 L-558.17 -262.8214 L-555.17 -270.8214 Z" fill-rule="evenodd" clip-path="url(#clipPath2)" stroke="none"/>
    </g>
    <g text-rendering="geometricPrecision" stroke-miterlimit="1.45" shape-rendering="geometricPrecision" transform="matrix(1,0,0,1,559,292)" stroke-linecap="butt">
      <path fill="none" d="M-558.17 -278.8214 L-531.17 -278.8214 L-528.17 -270.8214 L-531.17 -262.8214 L-558.17 -262.8214 L-555.17 -270.8214 Z" fill-rule="evenodd" clip-path="url(#clipPath2)"/>
    </g>
    <g stroke-linecap="butt" transform="matrix(1,0,0,1,559,292)" fill="blue" text-rendering="geometricPrecision" font-family="'Arial'" shape-rendering="geometricPrecision" stroke="blue" font-weight="bold" stroke-miterlimit="1.45">
      <text x="-544.837" xml:space="preserve" y="-266.6612" clip-path="url(#clipPath2)" stroke="none">i</text>
    </g>
    <g fill="rgb(255,204,0)" text-rendering="geometricPrecision" shape-rendering="geometricPrecision" transform="matrix(1,0,0,1,559,292)" stroke="rgb(255,204,0)">
      <path d="M-279.0968 -278.8214 L-252.0968 -278.8214 L-249.0968 -270.8214 L-252.0968 -262.8214 L-279.0968 -262.8214 L-276.0968 -270.8214 Z" fill-rule="evenodd" clip-path="url(#clipPath2)" stroke="none"/>
    </g>
    <g text-rendering="geometricPrecision" stroke-miterlimit="1.45" shape-rendering="geometricPrecision" transform="matrix(1,0,0,1,559,292)" stroke-linecap="butt">
      <path fill="none" d="M-279.0968 -278.8214 L-252.0968 -278.8214 L-249.0968 -270.8214 L-252.0968 -262.8214 L-279.0968 -262.8214 L-276.0968 -270.8214 Z" fill-rule="evenodd" clip-path="url(#clipPath2)"/>
    </g>
    <g stroke-linecap="butt" transform="matrix(1,0,0,1,559,292)" fill="blue" text-rendering="geometricPrecision" font-family="'Arial'" shape-rendering="geometricPrecision" stroke="blue" font-weight="bold" stroke-miterlimit="1.45">
      <text x="-267.4337" xml:space="preserve" y="-266.6612" clip-path="url(#clipPath2)" stroke="none">a</text>
    </g>
    <g fill="rgb(255,204,0)" text-rendering="geometricPrecision" shape-rendering="geometricPrecision" transform="matrix(1,0,0,1,559,292)" stroke="rgb(255,204,0)">
      <path d="M-279.0968 -243.8213 L-252.0968 -243.8213 L-249.0968 -235.8213 L-252.0968 -227.8213 L-279.0968 -227.8213 L-276.0968 -235.8213 Z" fill-rule="evenodd" clip-path="url(#clipPath2)" stroke="none"/>
    </g>
    <g text-rendering="geometricPrecision" stroke-miterlimit="1.45" shape-rendering="geometricPrecision" transform="matrix(1,0,0,1,559,292)" stroke-linecap="butt">
      <path fill="none" d="M-279.0968 -243.8213 L-252.0968 -243.8213 L-249.0968 -235.8213 L-252.0968 -227.8213 L-279.0968 -227.8213 L-276.0968 -235.8213 Z" fill-rule="evenodd" clip-path="url(#clipPath2)"/>
    </g>
    <g stroke-linecap="butt" transform="matrix(1,0,0,1,559,292)" fill="blue" text-rendering="geometricPrecision" font-family="'Arial'" shape-rendering="geometricPrecision" stroke="blue" font-weight="bold" stroke-miterlimit="1.45">
      <text x="-267.7618" xml:space="preserve" y="-231.6612" clip-path="url(#clipPath2)" stroke="none">b</text>
    </g>
    <g fill="rgb(255,204,0)" text-rendering="geometricPrecision" shape-rendering="geometricPrecision" transform="matrix(1,0,0,1,559,292)" stroke="rgb(255,204,0)">
      <path d="M-279.0968 -208.8213 L-252.0968 -208.8213 L-249.0968 -200.8213 L-252.0968 -192.8213 L-279.0968 -192.8213 L-276.0968 -200.8213 Z" fill-rule="evenodd" clip-path="url(#clipPath2)" stroke="none"/>
    </g>
    <g text-rendering="geometricPrecision" stroke-miterlimit="1.45" shape-rendering="geometricPrecision" transform="matrix(1,0,0,1,559,292)" stroke-linecap="butt">
      <path fill="none" d="M-279.0968 -208.8213 L-252.0968 -208.8213 L-249.0968 -200.8213 L-252.0968 -192.8213 L-279.0968 -192.8213 L-276.0968 -200.8213 Z" fill-rule="evenodd" clip-path="url(#clipPath2)"/>
    </g>
    <g stroke-linecap="butt" transform="matrix(1,0,0,1,559,292)" fill="blue" text-rendering="geometricPrecision" font-family="'Arial'" shape-rendering="geometricPrecision" stroke="blue" font-weight="bold" stroke-miterlimit="1.45">
      <text x="-267.4337" xml:space="preserve" y="-196.6612" clip-path="url(#clipPath2)" stroke="none">c</text>
    </g>
    <g fill="rgb(255,204,0)" text-rendering="geometricPrecision" shape-rendering="geometricPrecision" transform="matrix(1,0,0,1,559,292)" stroke="rgb(255,204,0)">
      <path d="M-279.0968 -173.8213 L-252.0968 -173.8213 L-249.0968 -165.8213 L-252.0968 -157.8213 L-279.0968 -157.8213 L-276.0968 -165.8213 Z" fill-rule="evenodd" clip-path="url(#clipPath2)" stroke="none"/>
    </g>
    <g text-rendering="geometricPrecision" stroke-miterlimit="1.45" shape-rendering="geometricPrecision" transform="matrix(1,0,0,1,559,292)" stroke-linecap="butt">
      <path fill="none" d="M-279.0968 -173.8213 L-252.0968 -173.8213 L-249.0968 -165.8213 L-252.0968 -157.8213 L-279.0968 -157.8213 L-276.0968 -165.8213 Z" fill-rule="evenodd" clip-path="url(#clipPath2)"/>
    </g>
    <g stroke-linecap="butt" transform="matrix(1,0,0,1,559,292)" fill="blue" text-rendering="geometricPrecision" font-family="'Arial'" shape-rendering="geometricPrecision" stroke="blue" font-weight="bold" stroke-miterlimit="1.45">
      <text x="-267.7618" xml:space="preserve" y="-161.6612" clip-path="url(#clipPath2)" stroke="none">d</text>
    </g>
    <g fill="rgb(255,204,0)" text-rendering="geometricPrecision" shape-rendering="geometricPrecision" transform="matrix(1,0,0,1,559,292)" stroke="rgb(255,204,0)">
      <path d="M-419.8276 -235.8213 L-404.8276 -250.8213 L-389.8276 -235.8213 L-404.8276 -220.8213 Z" fill-rule="evenodd" clip-path="url(#clipPath2)" stroke="none"/>
    </g>
    <g text-rendering="geometricPrecision" stroke-miterlimit="1.45" shape-rendering="geometricPrecision" transform="matrix(1,0,0,1,559,292)" stroke-linecap="butt">
      <path fill="none" d="M-419.8276 -235.8213 L-404.8276 -250.8213 L-389.8276 -235.8213 L-404.8276 -220.8213 Z" fill-rule="evenodd" clip-path="url(#clipPath2)"/>
      <text x="-410.4995" xml:space="preserve" y="-231.6612" clip-path="url(#clipPath2)" font-family="'Arial'" stroke="none">*3</text>
    </g>
    <g fill="rgb(255,204,0)" text-rendering="geometricPrecision" shape-rendering="geometricPrecision" transform="matrix(1,0,0,1,559,292)" stroke="rgb(255,204,0)">
      <path d="M-349.4622 -200.8213 L-334.4622 -215.8213 L-319.4622 -200.8213 L-334.4622 -185.8213 Z" fill-rule="evenodd" clip-path="url(#clipPath2)" stroke="none"/>
    </g>
    <g text-rendering="geometricPrecision" stroke-miterlimit="1.45" shape-rendering="geometricPrecision" transform="matrix(1,0,0,1,559,292)" stroke-linecap="butt">
      <path fill="none" d="M-349.4622 -200.8213 L-334.4622 -215.8213 L-319.4622 -200.8213 L-334.4622 -185.8213 Z" fill-rule="evenodd" clip-path="url(#clipPath2)"/>
      <text x="-337.9661" xml:space="preserve" y="-196.6612" clip-path="url(#clipPath2)" font-family="'Arial'" stroke="none">+</text>
    </g>
    <g fill="rgb(255,204,0)" text-rendering="geometricPrecision" shape-rendering="geometricPrecision" transform="matrix(1,0,0,1,559,292)" stroke="rgb(255,204,0)">
      <path d="M-487.5848 -165.8213 L-472.5848 -180.8213 L-457.5848 -165.8213 L-472.5848 -150.8213 Z" fill-rule="evenodd" clip-path="url(#clipPath2)" stroke="none"/>
    </g>
    <g text-rendering="geometricPrecision" stroke-miterlimit="1.45" shape-rendering="geometricPrecision" transform="matrix(1,0,0,1,559,292)" stroke-linecap="butt">
      <path fill="none" d="M-487.5848 -165.8213 L-472.5848 -180.8213 L-457.5848 -165.8213 L-472.5848 -150.8213 Z" fill-rule="evenodd" clip-path="url(#clipPath2)"/>
      <text x="-477.9198" xml:space="preserve" y="-161.6612" clip-path="url(#clipPath2)" font-family="'Arial'" stroke="none">-1</text>
    </g>
    <g fill="rgb(255,204,0)" text-rendering="geometricPrecision" shape-rendering="geometricPrecision" transform="matrix(1,0,0,1,559,292)" stroke="rgb(255,204,0)">
      <path d="M-279.0968 -138.8214 L-252.0968 -138.8214 L-249.0968 -130.8214 L-252.0968 -122.8213 L-279.0968 -122.8213 L-276.0968 -130.8214 Z" fill-rule="evenodd" clip-path="url(#clipPath2)" stroke="none"/>
    </g>
    <g text-rendering="geometricPrecision" stroke-miterlimit="1.45" shape-rendering="geometricPrecision" transform="matrix(1,0,0,1,559,292)" stroke-linecap="butt">
      <path fill="none" d="M-279.0968 -138.8214 L-252.0968 -138.8214 L-249.0968 -130.8214 L-252.0968 -122.8213 L-279.0968 -122.8213 L-276.0968 -130.8214 Z" fill-rule="evenodd" clip-path="url(#clipPath2)"/>
    </g>
    <g stroke-linecap="butt" transform="matrix(1,0,0,1,559,292)" fill="blue" text-rendering="geometricPrecision" font-family="'Arial'" shape-rendering="geometricPrecision" stroke="blue" font-weight="bold" stroke-miterlimit="1.45">
      <text x="-267.4337" xml:space="preserve" y="-126.6612" clip-path="url(#clipPath2)" stroke="none">e</text>
    </g>
    <g fill="rgb(255,204,0)" text-rendering="geometricPrecision" shape-rendering="geometricPrecision" transform="matrix(1,0,0,1,559,292)" stroke="rgb(255,204,0)">
      <path d="M-558.17 -140.6427 L-531.17 -140.6427 L-528.17 -132.6427 L-531.17 -124.6427 L-558.17 -124.6427 L-555.17 -132.6427 Z" fill-rule="evenodd" clip-path="url(#clipPath2)" stroke="none"/>
    </g>
    <g text-rendering="geometricPrecision" stroke-miterlimit="1.45" shape-rendering="geometricPrecision" transform="matrix(1,0,0,1,559,292)" stroke-linecap="butt">
      <path fill="none" d="M-558.17 -140.6427 L-531.17 -140.6427 L-528.17 -132.6427 L-531.17 -124.6427 L-558.17 -124.6427 L-555.17 -132.6427 Z" fill-rule="evenodd" clip-path="url(#clipPath2)"/>
    </g>
    <g stroke-linecap="butt" transform="matrix(1,0,0,1,559,292)" fill="blue" text-rendering="geometricPrecision" font-family="'Arial'" shape-rendering="geometricPrecision" stroke="blue" font-weight="bold" stroke-miterlimit="1.45">
      <text x="-544.837" xml:space="preserve" y="-128.4825" clip-path="url(#clipPath2)" stroke="none">j</text>
    </g>
    <g fill="rgb(255,204,0)" text-rendering="geometricPrecision" shape-rendering="geometricPrecision" transform="matrix(1,0,0,1,559,292)" stroke="rgb(255,204,0)">
      <path d="M-419.8276 -130.8214 L-404.8276 -145.8214 L-389.8276 -130.8214 L-404.8276 -115.8214 Z" fill-rule="evenodd" clip-path="url(#clipPath2)" stroke="none"/>
    </g>
    <g text-rendering="geometricPrecision" stroke-miterlimit="1.45" shape-rendering="geometricPrecision" transform="matrix(1,0,0,1,559,292)" stroke-linecap="butt">
      <path fill="none" d="M-419.8276 -130.8214 L-404.8276 -145.8214 L-389.8276 -130.8214 L-404.8276 -115.8214 Z" fill-rule="evenodd" clip-path="url(#clipPath2)"/>
      <text x="-409.8315" xml:space="preserve" y="-126.6612" clip-path="url(#clipPath2)" font-family="'Arial'" stroke="none">/4</text>
      <path fill="none" d="M-528.1921 -270.8214 L-495.303 -270.8214" clip-path="url(#clipPath2)"/>
      <path d="M-487.303 -270.8214 L-499.303 -275.8214 L-496.303 -270.8214 L-499.303 -265.8214 Z" clip-path="url(#clipPath2)" stroke="none"/>
      <path fill="none" d="M-457.3051 -270.8214 L-284.1252 -270.8214" clip-path="url(#clipPath2)"/>
      <path d="M-276.1252 -270.8214 L-288.1252 -275.8214 L-285.1252 -270.8214 L-288.1252 -265.8214 Z" clip-path="url(#clipPath2)" stroke="none"/>
      <path fill="none" d="M-445.5 -266.8214 L-445.5 -235.8213 L-427.8017 -235.8213" clip-path="url(#clipPath2)"/>
      <path d="M-445.5 -274.8214 C-443.2909 -274.8214 -441.5 -273.0305 -441.5 -270.8214 C-441.5 -268.6122 -443.2909 -266.8214 -445.5 -266.8214 C-447.7091 -266.8214 -449.5 -268.6122 -449.5 -270.8214 C-449.5 -273.0305 -447.7091 -274.8214 -445.5 -274.8214 Z" clip-path="url(#clipPath2)" stroke="none"/>
      <path d="M-419.8017 -235.8213 L-431.8017 -240.8213 L-428.8017 -235.8213 L-431.8017 -230.8213 Z" clip-path="url(#clipPath2)" stroke="none"/>
      <path fill="none" d="M-389.8131 -235.8213 L-284.0976 -235.8213" clip-path="url(#clipPath2)"/>
      <path d="M-276.0976 -235.8213 L-288.0976 -240.8213 L-285.0976 -235.8213 L-288.0976 -230.8213 Z" clip-path="url(#clipPath2)" stroke="none"/>
      <path fill="none" d="M-445.5 -232.7568 L-445.5 -182.8213 L-369.5 -182.8213 L-351.4667 -192.0856" clip-path="url(#clipPath2)"/>
      <path d="M-445.5 -240.7568 C-443.2909 -240.7568 -441.5 -238.9659 -441.5 -236.7568 C-441.5 -234.5476 -443.2909 -232.7568 -445.5 -232.7568 C-447.7091 -232.7568 -449.5 -234.5476 -449.5 -236.7568 C-449.5 -238.9659 -447.7091 -240.7568 -445.5 -240.7568 Z" clip-path="url(#clipPath2)" stroke="none"/>
      <path d="M-344.3508 -195.7413 L-357.3094 -194.7052 L-352.3562 -191.6286 L-352.7399 -185.8103 Z" clip-path="url(#clipPath2)" stroke="none"/>
      <path fill="none" d="M-374.3967 -233.2976 L-348.9276 -212.5851" clip-path="url(#clipPath2)"/>
      <path d="M-380.6033 -238.3451 C-379.2095 -240.059 -376.6902 -240.3185 -374.9763 -238.9247 C-373.2623 -237.5308 -373.0028 -235.0115 -374.3967 -233.2976 C-375.7905 -231.5837 -378.3098 -231.3242 -380.0237 -232.718 C-381.7377 -234.1118 -381.9972 -236.6311 -380.6033 -238.3451 Z" clip-path="url(#clipPath2)" stroke="none"/>
      <path d="M-342.7209 -207.5376 L-348.8762 -218.9881 L-349.7034 -213.2161 L-355.1856 -211.2297 Z" clip-path="url(#clipPath2)" stroke="none"/>
      <path fill="none" d="M-319.4477 -200.8213 L-284.1237 -200.8213" clip-path="url(#clipPath2)"/>
      <path d="M-276.1237 -200.8213 L-288.1237 -205.8213 L-285.1237 -200.8213 L-288.1237 -195.8213 Z" clip-path="url(#clipPath2)" stroke="none"/>
      <path fill="none" d="M-511.2777 -266.8214 L-511.2777 -165.8213 L-495.5859 -165.8213" clip-path="url(#clipPath2)"/>
      <path d="M-511.2777 -274.8214 C-509.0686 -274.8214 -507.2777 -273.0305 -507.2777 -270.8214 C-507.2777 -268.6122 -509.0686 -266.8214 -511.2777 -266.8214 C-513.4869 -266.8214 -515.2777 -268.6122 -515.2777 -270.8214 C-515.2777 -273.0305 -513.4869 -274.8214 -511.2777 -274.8214 Z" clip-path="url(#clipPath2)" stroke="none"/>
      <path d="M-487.5859 -165.8213 L-499.5859 -170.8213 L-496.5859 -165.8213 L-499.5859 -160.8213 Z" clip-path="url(#clipPath2)" stroke="none"/>
      <path fill="none" d="M-457.5946 -165.8213 L-284.1432 -165.8213" clip-path="url(#clipPath2)"/>
      <path d="M-276.1432 -165.8213 L-288.1432 -170.8213 L-285.1432 -165.8213 L-288.1432 -160.8213 Z" clip-path="url(#clipPath2)" stroke="none"/>
      <path fill="none" d="M-528.2752 -132.4466 L-427.6249 -131.1215" clip-path="url(#clipPath2)"/>
      <path d="M-419.6256 -131.0162 L-431.5588 -136.1737 L-428.6248 -131.1346 L-431.6904 -126.1746 Z" clip-path="url(#clipPath2)" stroke="none"/>
      <path fill="none" d="M-389.8131 -130.8213 L-284.0976 -130.8213" clip-path="url(#clipPath2)"/>
      <path d="M-276.0976 -130.8213 L-288.0976 -135.8213 L-285.0976 -130.8213 L-288.0976 -125.8213 Z" clip-path="url(#clipPath2)" stroke="none"/>
    </g>
  </g>
</svg>
