<?xml version="1.0" encoding="UTF-8"?><svg xmlns="http://www.w3.org/2000/svg" xmlns:xlink="http://www.w3.org/1999/xlink" fill-opacity="1" color-rendering="auto" color-interpolation="auto" text-rendering="auto" stroke="black" stroke-linecap="square" width="310" stroke-miterlimit="10" shape-rendering="auto" stroke-opacity="1" fill="black" stroke-dasharray="none" font-weight="normal" stroke-width="1" height="183" font-family="'Dialog'" font-style="normal" stroke-linejoin="miter" font-size="12px" stroke-dashoffset="0" image-rendering="auto">
  <!--Generated by ySVG 2.5-->
  <defs id="genericDefs"/>
  <g>
    <defs id="defs1">
      <clipPath clipPathUnits="userSpaceOnUse" id="clipPath1">
        <path d="M0 0 L310 0 L310 183 L0 183 L0 0 Z"/>
      </clipPath>
      <clipPath clipPathUnits="userSpaceOnUse" id="clipPath2">
        <path d="M689 520 L999 520 L999 703 L689 703 L689 520 Z"/>
      </clipPath>
    </defs>
    <g fill="rgb(204,255,255)" text-rendering="geometricPrecision" shape-rendering="geometricPrecision" transform="matrix(1,0,0,1,-689,-520)" stroke="rgb(204,255,255)">
      <rect x="703" width="278.6848" height="180.48" y="520" clip-path="url(#clipPath2)" stroke="none"/>
    </g>
    <g text-rendering="geometricPrecision" stroke-miterlimit="1.45" stroke-width="2" shape-rendering="geometricPrecision" transform="matrix(1,0,0,1,-689,-520)" stroke-linecap="butt">
      <rect fill="none" x="703" width="278.6848" height="180.48" y="520" clip-path="url(#clipPath2)"/>
    </g>
    <g fill="rgb(255,204,0)" text-rendering="geometricPrecision" shape-rendering="geometricPrecision" transform="matrix(1,0,0,1,-689,-520)" stroke="rgb(255,204,0)">
      <rect x="761.8424" width="37" height="36" y="536.4622" clip-path="url(#clipPath2)" stroke="none"/>
    </g>
    <g text-rendering="geometricPrecision" stroke-miterlimit="1.45" shape-rendering="geometricPrecision" transform="matrix(1,0,0,1,-689,-520)" stroke-linecap="butt">
      <rect fill="none" x="761.8424" width="37" height="36" y="536.4622" clip-path="url(#clipPath2)"/>
      <text x="766.3326" xml:space="preserve" y="551.9193" clip-path="url(#clipPath2)" font-family="'Arial'" stroke="none">State</text>
      <text x="765.8317" xml:space="preserve" y="565.3255" clip-path="url(#clipPath2)" font-family="'Arial'" stroke="none">init=0</text>
    </g>
    <g fill="rgb(255,204,0)" text-rendering="geometricPrecision" shape-rendering="geometricPrecision" transform="matrix(1,0,0,1,-689,-520)" stroke="rgb(255,204,0)">
      <rect x="823.8424" width="37" height="36" y="536.4622" clip-path="url(#clipPath2)" stroke="none"/>
    </g>
    <g text-rendering="geometricPrecision" stroke-miterlimit="1.45" shape-rendering="geometricPrecision" transform="matrix(1,0,0,1,-689,-520)" stroke-linecap="butt">
      <rect fill="none" x="823.8424" width="37" height="36" y="536.4622" clip-path="url(#clipPath2)"/>
      <text x="828.3326" xml:space="preserve" y="551.9193" clip-path="url(#clipPath2)" font-family="'Arial'" stroke="none">State</text>
      <text x="827.8317" xml:space="preserve" y="565.3255" clip-path="url(#clipPath2)" font-family="'Arial'" stroke="none">init=0</text>
    </g>
    <g fill="rgb(255,204,0)" text-rendering="geometricPrecision" shape-rendering="geometricPrecision" transform="matrix(1,0,0,1,-689,-520)" stroke="rgb(255,204,0)">
      <rect x="885.8424" width="37" height="36" y="536.4622" clip-path="url(#clipPath2)" stroke="none"/>
    </g>
    <g text-rendering="geometricPrecision" stroke-miterlimit="1.45" shape-rendering="geometricPrecision" transform="matrix(1,0,0,1,-689,-520)" stroke-linecap="butt">
      <rect fill="none" x="885.8424" width="37" height="36" y="536.4622" clip-path="url(#clipPath2)"/>
      <text x="890.3326" xml:space="preserve" y="551.9193" clip-path="url(#clipPath2)" font-family="'Arial'" stroke="none">State</text>
      <text x="889.8317" xml:space="preserve" y="565.3255" clip-path="url(#clipPath2)" font-family="'Arial'" stroke="none">init=0</text>
    </g>
    <g fill="rgb(255,204,0)" text-rendering="geometricPrecision" shape-rendering="geometricPrecision" transform="matrix(1,0,0,1,-689,-520)" stroke="rgb(255,204,0)">
      <path d="M763.8424 597.9232 L778.8424 582.9232 L793.8424 597.9232 L778.8424 612.9232 Z" fill-rule="evenodd" clip-path="url(#clipPath2)" stroke="none"/>
    </g>
    <g text-rendering="geometricPrecision" stroke-miterlimit="1.45" shape-rendering="geometricPrecision" transform="matrix(1,0,0,1,-689,-520)" stroke-linecap="butt">
      <path fill="none" d="M763.8424 597.9232 L778.8424 582.9232 L793.8424 597.9232 L778.8424 612.9232 Z" fill-rule="evenodd" clip-path="url(#clipPath2)"/>
      <text x="772.5231" xml:space="preserve" y="602.0834" clip-path="url(#clipPath2)" font-family="'Arial'" stroke="none">+^</text>
    </g>
    <g fill="rgb(255,204,0)" text-rendering="geometricPrecision" shape-rendering="geometricPrecision" transform="matrix(1,0,0,1,-689,-520)" stroke="rgb(255,204,0)">
      <path d="M889.3424 597.9232 L904.3424 582.9232 L919.3424 597.9232 L904.3424 612.9232 Z" fill-rule="evenodd" clip-path="url(#clipPath2)" stroke="none"/>
    </g>
    <g text-rendering="geometricPrecision" stroke-miterlimit="1.45" shape-rendering="geometricPrecision" transform="matrix(1,0,0,1,-689,-520)" stroke-linecap="butt">
      <path fill="none" d="M889.3424 597.9232 L904.3424 582.9232 L919.3424 597.9232 L904.3424 612.9232 Z" fill-rule="evenodd" clip-path="url(#clipPath2)"/>
      <text x="898.0231" xml:space="preserve" y="602.0834" clip-path="url(#clipPath2)" font-family="'Arial'" stroke="none">+^</text>
    </g>
    <g fill="rgb(255,204,0)" text-rendering="geometricPrecision" shape-rendering="geometricPrecision" transform="matrix(1,0,0,1,-689,-520)" stroke="rgb(255,204,0)">
      <path d="M827.3424 652.5104 L842.3424 637.5104 L857.3424 652.5104 L842.3424 667.5104 Z" fill-rule="evenodd" clip-path="url(#clipPath2)" stroke="none"/>
    </g>
    <g text-rendering="geometricPrecision" stroke-miterlimit="1.45" shape-rendering="geometricPrecision" transform="matrix(1,0,0,1,-689,-520)" stroke-linecap="butt">
      <path fill="none" d="M827.3424 652.5104 L842.3424 637.5104 L857.3424 652.5104 L842.3424 667.5104 Z" fill-rule="evenodd" clip-path="url(#clipPath2)"/>
      <text x="836.0231" xml:space="preserve" y="656.6706" clip-path="url(#clipPath2)" font-family="'Arial'" stroke="none">+^</text>
    </g>
    <g fill="rgb(255,204,0)" text-rendering="geometricPrecision" shape-rendering="geometricPrecision" transform="matrix(1,0,0,1,-689,-520)" stroke="rgb(255,204,0)">
      <path d="M887.3424 675.3998 L902.3424 660.3998 L917.3424 675.3998 L902.3424 690.3998 Z" fill-rule="evenodd" clip-path="url(#clipPath2)" stroke="none"/>
    </g>
    <g text-rendering="geometricPrecision" stroke-miterlimit="1.45" shape-rendering="geometricPrecision" transform="matrix(1,0,0,1,-689,-520)" stroke-linecap="butt">
      <path fill="none" d="M887.3424 675.3998 L902.3424 660.3998 L917.3424 675.3998 L902.3424 690.3998 Z" fill-rule="evenodd" clip-path="url(#clipPath2)"/>
      <text x="900.6754" xml:space="preserve" y="679.56" clip-path="url(#clipPath2)" font-family="'Arial'" stroke="none">/</text>
    </g>
    <g fill="rgb(255,204,0)" text-rendering="geometricPrecision" shape-rendering="geometricPrecision" transform="matrix(1,0,0,1,-689,-520)" stroke="rgb(255,204,0)">
      <ellipse rx="7.6272" ry="8" clip-path="url(#clipPath2)" cx="937.8372" cy="647.3998" stroke="none"/>
    </g>
    <g text-rendering="geometricPrecision" stroke-miterlimit="1.45" shape-rendering="geometricPrecision" transform="matrix(1,0,0,1,-689,-520)" stroke-linecap="butt">
      <ellipse rx="7.6272" fill="none" ry="8" clip-path="url(#clipPath2)" cx="937.8372" cy="647.3998"/>
      <text x="934.5003" xml:space="preserve" y="651.56" clip-path="url(#clipPath2)" font-family="'Arial'" stroke="none">4</text>
      <text x="707.005" font-size="30px" y="693.7034" clip-path="url(#clipPath2)" font-family="'Arial'" stroke="none" xml:space="preserve">SMA_PL</text>
    </g>
    <g fill="rgb(255,204,0)" text-rendering="geometricPrecision" shape-rendering="geometricPrecision" transform="matrix(1,0,0,1,-689,-520)" stroke="rgb(255,204,0)">
      <path d="M689 546.4622 L716 546.4622 L719 554.4622 L716 562.4622 L689 562.4622 L692 554.4622 Z" fill-rule="evenodd" clip-path="url(#clipPath2)" stroke="none"/>
    </g>
    <g text-rendering="geometricPrecision" stroke-miterlimit="1.45" shape-rendering="geometricPrecision" transform="matrix(1,0,0,1,-689,-520)" stroke-linecap="butt">
      <path fill="none" d="M689 546.4622 L716 546.4622 L719 554.4622 L716 562.4622 L689 562.4622 L692 554.4622 Z" fill-rule="evenodd" clip-path="url(#clipPath2)"/>
    </g>
    <g stroke-linecap="butt" transform="matrix(1,0,0,1,-689,-520)" fill="blue" text-rendering="geometricPrecision" font-family="'Arial'" shape-rendering="geometricPrecision" stroke="blue" font-weight="bold" stroke-miterlimit="1.45">
      <text x="700.6631" xml:space="preserve" y="558.6224" clip-path="url(#clipPath2)" stroke="none">x</text>
    </g>
    <g fill="rgb(255,204,0)" text-rendering="geometricPrecision" shape-rendering="geometricPrecision" transform="matrix(1,0,0,1,-689,-520)" stroke="rgb(255,204,0)">
      <path d="M968.0732 667.3998 L995.0732 667.3998 L998.0732 675.3998 L995.0732 683.3998 L968.0732 683.3998 L971.0732 675.3998 Z" fill-rule="evenodd" clip-path="url(#clipPath2)" stroke="none"/>
    </g>
    <g text-rendering="geometricPrecision" stroke-miterlimit="1.45" shape-rendering="geometricPrecision" transform="matrix(1,0,0,1,-689,-520)" stroke-linecap="butt">
      <path fill="none" d="M968.0732 667.3998 L995.0732 667.3998 L998.0732 675.3998 L995.0732 683.3998 L968.0732 683.3998 L971.0732 675.3998 Z" fill-rule="evenodd" clip-path="url(#clipPath2)"/>
    </g>
    <g stroke-linecap="butt" transform="matrix(1,0,0,1,-689,-520)" fill="blue" text-rendering="geometricPrecision" font-family="'Arial'" shape-rendering="geometricPrecision" stroke="blue" font-weight="bold" stroke-miterlimit="1.45">
      <text x="979.7363" xml:space="preserve" y="679.56" clip-path="url(#clipPath2)" stroke="none">y</text>
      <text x="847.5519" xml:space="preserve" y="672.217" clip-path="url(#clipPath2)" stroke="none">sum</text>
      <text x="782.5197" xml:space="preserve" y="619.6082" clip-path="url(#clipPath2)" stroke="none">s0</text>
      <text x="884.1611" xml:space="preserve" y="619.6082" clip-path="url(#clipPath2)" stroke="none">s2</text>
    </g>
    <g stroke-linecap="butt" transform="matrix(1,0,0,1,-689,-520)" fill="maroon" text-rendering="geometricPrecision" shape-rendering="geometricPrecision" stroke-dasharray="6,2" stroke="maroon" stroke-miterlimit="1.45">
      <path fill="none" d="M734.9298 602.4798 L737.1573 604.5101 L748.6654 611.4244 L762.4773 617.2297 L778.1613 621.8991 L795.2861 625.4058 L813.42 627.7227 L832.1317 628.8231 L850.9895 628.6799 L869.5621 627.2663 L887.4178 624.5554 L904.1254 620.5203 L919.2531 615.1341 L932.3694 608.3699 L943.043 600.2007 L945.4498 597.2379" clip-path="url(#clipPath2)"/>
      <text x="826.781" y="623.4076" clip-path="url(#clipPath2)" font-family="sans-serif" stroke-dasharray="none" stroke="none" xml:space="preserve">pipe 1</text>
      <path fill="none" stroke-dasharray="none" d="M798.8424 554.4622 L815.8424 554.4622" clip-path="url(#clipPath2)" stroke="black"/>
      <path fill="black" stroke-dasharray="none" d="M823.8424 554.4622 L811.8424 549.4622 L814.8424 554.4622 L811.8424 559.4622 Z" clip-path="url(#clipPath2)" stroke="none"/>
      <path fill="none" stroke-dasharray="none" d="M860.8424 554.4622 L877.8424 554.4622" clip-path="url(#clipPath2)" stroke="black"/>
      <path fill="black" stroke-dasharray="none" d="M885.8424 554.4622 L873.8424 549.4622 L876.8424 554.4622 L873.8424 559.4622 Z" clip-path="url(#clipPath2)" stroke="none"/>
      <path fill="none" stroke-dasharray="none" d="M798.8424 554.4622 L811.1192 554.4622 L811.1192 597.9232 L801.8373 597.9232" clip-path="url(#clipPath2)" stroke="black"/>
      <path fill="black" stroke-dasharray="none" d="M793.8373 597.9232 L805.8373 602.9232 L802.8373 597.9232 L805.8373 592.9232 Z" clip-path="url(#clipPath2)" stroke="none"/>
      <path fill="none" stroke-dasharray="none" d="M860.8424 554.4622 L871.6152 554.4622 L871.6152 597.9232 L881.3531 597.9232" clip-path="url(#clipPath2)" stroke="black"/>
      <path fill="black" stroke-dasharray="none" d="M889.3531 597.9232 L877.3531 592.9232 L880.3531 597.9232 L877.3531 602.9232 Z" clip-path="url(#clipPath2)" stroke="none"/>
      <path fill="none" stroke-dasharray="none" d="M922.8424 554.4622 L936.332 554.4622 L936.332 597.9232 L927.3688 597.9232" clip-path="url(#clipPath2)" stroke="black"/>
      <path fill="black" stroke-dasharray="none" d="M919.3688 597.9232 L931.3688 602.9232 L928.3688 597.9232 L931.3688 592.9232 Z" clip-path="url(#clipPath2)" stroke="none"/>
      <path fill="none" stroke-dasharray="none" d="M778.8424 612.912 L778.8424 634.2081 L823.0281 646.9435" clip-path="url(#clipPath2)" stroke="black"/>
      <path fill="black" stroke-dasharray="none" d="M830.7152 649.1592 L820.5694 641.0313 L822.0673 646.6666 L817.7999 650.6401 Z" clip-path="url(#clipPath2)" stroke="none"/>
      <path fill="none" stroke-dasharray="none" d="M904.3424 612.912 L904.3424 634.2081 L861.6098 646.8227" clip-path="url(#clipPath2)" stroke="black"/>
      <path fill="black" stroke-dasharray="none" d="M853.9371 649.0877 L866.8618 650.4856 L862.5688 646.5396 L864.0305 640.8948 Z" clip-path="url(#clipPath2)" stroke="none"/>
      <path fill="none" stroke-dasharray="none" d="M842.3424 667.4869 L842.3424 675.3998 L879.3717 675.3998" clip-path="url(#clipPath2)" stroke="black"/>
      <path fill="black" stroke-dasharray="none" d="M887.3717 675.3998 L875.3717 670.3998 L878.3717 675.3998 L875.3717 680.3998 Z" clip-path="url(#clipPath2)" stroke="none"/>
      <path fill="none" stroke-dasharray="none" d="M931.7416 652.2084 L917.0355 663.8093" clip-path="url(#clipPath2)" stroke="black"/>
      <path fill="black" stroke-dasharray="none" d="M910.7545 668.764 L923.2727 665.2574 L917.8206 663.1899 L917.0792 657.4062 Z" clip-path="url(#clipPath2)" stroke="none"/>
      <path fill="none" stroke-dasharray="none" d="M718.9675 554.4622 L747.916 554.4622 L747.916 597.9232 L755.8322 597.9232" clip-path="url(#clipPath2)" stroke="black"/>
      <path fill="black" stroke-dasharray="none" d="M763.8322 597.9232 L751.8322 592.9232 L754.8322 597.9232 L751.8322 602.9232 Z" clip-path="url(#clipPath2)" stroke="none"/>
      <path fill="none" stroke-dasharray="none" d="M719.0225 554.4622 L753.8424 554.4622" clip-path="url(#clipPath2)" stroke="black"/>
      <path fill="black" stroke-dasharray="none" d="M761.8424 554.4622 L749.8424 549.4622 L752.8424 554.4622 L749.8424 559.4622 Z" clip-path="url(#clipPath2)" stroke="none"/>
      <path fill="none" stroke-dasharray="none" d="M917.3611 675.3998 L963.1052 675.3998" clip-path="url(#clipPath2)" stroke="black"/>
      <path fill="black" stroke-dasharray="none" d="M971.1052 675.3998 L959.1052 670.3998 L962.1052 675.3998 L959.1052 680.3998 Z" clip-path="url(#clipPath2)" stroke="none"/>
    </g>
  </g>
</svg>
