<?xml version="1.0" encoding="UTF-8"?><svg xmlns="http://www.w3.org/2000/svg" xmlns:xlink="http://www.w3.org/1999/xlink" fill-opacity="1" color-rendering="auto" color-interpolation="auto" text-rendering="auto" stroke="black" stroke-linecap="square" width="310" stroke-miterlimit="10" shape-rendering="auto" stroke-opacity="1" fill="black" stroke-dasharray="none" font-weight="normal" stroke-width="1" height="183" font-family="'Dialog'" font-style="normal" stroke-linejoin="miter" font-size="12px" stroke-dashoffset="0" image-rendering="auto">
  <!--Generated by ySVG 2.5-->
  <defs id="genericDefs"/>
  <g>
    <defs id="defs1">
      <clipPath clipPathUnits="userSpaceOnUse" id="clipPath1">
        <path d="M0 0 L310 0 L310 183 L0 183 L0 0 Z"/>
      </clipPath>
      <clipPath clipPathUnits="userSpaceOnUse" id="clipPath2">
        <path d="M1553 522 L1863 522 L1863 705 L1553 705 L1553 522 Z"/>
      </clipPath>
    </defs>
    <g fill="rgb(204,255,255)" text-rendering="geometricPrecision" shape-rendering="geometricPrecision" transform="matrix(1,0,0,1,-1553,-522)" stroke="rgb(204,255,255)">
      <rect x="1567.3894" width="278.6848" height="180.48" y="522" clip-path="url(#clipPath2)" stroke="none"/>
    </g>
    <g text-rendering="geometricPrecision" stroke-miterlimit="1.45" stroke-width="2" shape-rendering="geometricPrecision" transform="matrix(1,0,0,1,-1553,-522)" stroke-linecap="butt">
      <rect fill="none" x="1567.3894" width="278.6848" height="180.48" y="522" clip-path="url(#clipPath2)"/>
    </g>
    <g fill="rgb(255,204,0)" text-rendering="geometricPrecision" shape-rendering="geometricPrecision" transform="matrix(1,0,0,1,-1553,-522)" stroke="rgb(255,204,0)">
      <rect x="1626.2318" width="37" height="36" y="538.4622" clip-path="url(#clipPath2)" stroke="none"/>
    </g>
    <g text-rendering="geometricPrecision" stroke-miterlimit="1.45" shape-rendering="geometricPrecision" transform="matrix(1,0,0,1,-1553,-522)" stroke-linecap="butt">
      <rect fill="none" x="1626.2318" width="37" height="36" y="538.4622" clip-path="url(#clipPath2)"/>
      <text x="1630.722" xml:space="preserve" y="553.9193" clip-path="url(#clipPath2)" font-family="'Arial'" stroke="none">State</text>
      <text x="1630.2211" xml:space="preserve" y="567.3255" clip-path="url(#clipPath2)" font-family="'Arial'" stroke="none">init=0</text>
    </g>
    <g fill="rgb(255,204,0)" text-rendering="geometricPrecision" shape-rendering="geometricPrecision" transform="matrix(1,0,0,1,-1553,-522)" stroke="rgb(255,204,0)">
      <rect x="1712.3318" width="37" height="36" y="538.4622" clip-path="url(#clipPath2)" stroke="none"/>
    </g>
    <g text-rendering="geometricPrecision" stroke-miterlimit="1.45" shape-rendering="geometricPrecision" transform="matrix(1,0,0,1,-1553,-522)" stroke-linecap="butt">
      <rect fill="none" x="1712.3318" width="37" height="36" y="538.4622" clip-path="url(#clipPath2)"/>
      <text x="1716.822" xml:space="preserve" y="553.9193" clip-path="url(#clipPath2)" font-family="'Arial'" stroke="none">State</text>
      <text x="1716.321" xml:space="preserve" y="567.3255" clip-path="url(#clipPath2)" font-family="'Arial'" stroke="none">init=0</text>
    </g>
    <g fill="rgb(255,204,0)" text-rendering="geometricPrecision" shape-rendering="geometricPrecision" transform="matrix(1,0,0,1,-1553,-522)" stroke="rgb(255,204,0)">
      <rect x="1767.7782" width="37" height="36" y="538.4622" clip-path="url(#clipPath2)" stroke="none"/>
    </g>
    <g text-rendering="geometricPrecision" stroke-miterlimit="1.45" shape-rendering="geometricPrecision" transform="matrix(1,0,0,1,-1553,-522)" stroke-linecap="butt">
      <rect fill="none" x="1767.7782" width="37" height="36" y="538.4622" clip-path="url(#clipPath2)"/>
      <text x="1772.2684" xml:space="preserve" y="553.9193" clip-path="url(#clipPath2)" font-family="'Arial'" stroke="none">State</text>
      <text x="1771.7675" xml:space="preserve" y="567.3255" clip-path="url(#clipPath2)" font-family="'Arial'" stroke="none">init=0</text>
    </g>
    <g fill="rgb(255,204,0)" text-rendering="geometricPrecision" shape-rendering="geometricPrecision" transform="matrix(1,0,0,1,-1553,-522)" stroke="rgb(255,204,0)">
      <path d="M1628.2318 599.9232 L1643.2318 584.9232 L1658.2318 599.9232 L1643.2318 614.9232 Z" fill-rule="evenodd" clip-path="url(#clipPath2)" stroke="none"/>
    </g>
    <g text-rendering="geometricPrecision" stroke-miterlimit="1.45" shape-rendering="geometricPrecision" transform="matrix(1,0,0,1,-1553,-522)" stroke-linecap="butt">
      <path fill="none" d="M1628.2318 599.9232 L1643.2318 584.9232 L1658.2318 599.9232 L1643.2318 614.9232 Z" fill-rule="evenodd" clip-path="url(#clipPath2)"/>
      <text x="1636.9125" xml:space="preserve" y="604.0834" clip-path="url(#clipPath2)" font-family="'Arial'" stroke="none">+^</text>
    </g>
    <g fill="rgb(255,204,0)" text-rendering="geometricPrecision" shape-rendering="geometricPrecision" transform="matrix(1,0,0,1,-1553,-522)" stroke="rgb(255,204,0)">
      <path d="M1691.7318 654.5104 L1706.7318 639.5104 L1721.7318 654.5104 L1706.7318 669.5104 Z" fill-rule="evenodd" clip-path="url(#clipPath2)" stroke="none"/>
    </g>
    <g text-rendering="geometricPrecision" stroke-miterlimit="1.45" shape-rendering="geometricPrecision" transform="matrix(1,0,0,1,-1553,-522)" stroke-linecap="butt">
      <path fill="none" d="M1691.7318 654.5104 L1706.7318 639.5104 L1721.7318 654.5104 L1706.7318 669.5104 Z" fill-rule="evenodd" clip-path="url(#clipPath2)"/>
      <text x="1700.4125" xml:space="preserve" y="658.6706" clip-path="url(#clipPath2)" font-family="'Arial'" stroke="none">+^</text>
    </g>
    <g fill="rgb(255,204,0)" text-rendering="geometricPrecision" shape-rendering="geometricPrecision" transform="matrix(1,0,0,1,-1553,-522)" stroke="rgb(255,204,0)">
      <path d="M1751.7318 677.3998 L1766.7318 662.3998 L1781.7318 677.3998 L1766.7318 692.3998 Z" fill-rule="evenodd" clip-path="url(#clipPath2)" stroke="none"/>
    </g>
    <g text-rendering="geometricPrecision" stroke-miterlimit="1.45" shape-rendering="geometricPrecision" transform="matrix(1,0,0,1,-1553,-522)" stroke-linecap="butt">
      <path fill="none" d="M1751.7318 677.3998 L1766.7318 662.3998 L1781.7318 677.3998 L1766.7318 692.3998 Z" fill-rule="evenodd" clip-path="url(#clipPath2)"/>
      <text x="1765.0648" xml:space="preserve" y="681.56" clip-path="url(#clipPath2)" font-family="'Arial'" stroke="none">/</text>
    </g>
    <g fill="rgb(255,204,0)" text-rendering="geometricPrecision" shape-rendering="geometricPrecision" transform="matrix(1,0,0,1,-1553,-522)" stroke="rgb(255,204,0)">
      <ellipse rx="7.6272" ry="8" clip-path="url(#clipPath2)" cx="1802.2266" cy="649.3998" stroke="none"/>
    </g>
    <g text-rendering="geometricPrecision" stroke-miterlimit="1.45" shape-rendering="geometricPrecision" transform="matrix(1,0,0,1,-1553,-522)" stroke-linecap="butt">
      <ellipse rx="7.6272" fill="none" ry="8" clip-path="url(#clipPath2)" cx="1802.2266" cy="649.3998"/>
      <text x="1798.8896" xml:space="preserve" y="653.56" clip-path="url(#clipPath2)" font-family="'Arial'" stroke="none">4</text>
      <text x="1567.239" font-size="30px" y="695.7034" clip-path="url(#clipPath2)" font-family="'Arial'" stroke="none" xml:space="preserve">SMA_DS2</text>
    </g>
    <g fill="rgb(255,204,0)" text-rendering="geometricPrecision" shape-rendering="geometricPrecision" transform="matrix(1,0,0,1,-1553,-522)" stroke="rgb(255,204,0)">
      <path d="M1553.3894 548.4622 L1580.3894 548.4622 L1583.3894 556.4622 L1580.3894 564.4622 L1553.3894 564.4622 L1556.3894 556.4622 Z" fill-rule="evenodd" clip-path="url(#clipPath2)" stroke="none"/>
    </g>
    <g text-rendering="geometricPrecision" stroke-miterlimit="1.45" shape-rendering="geometricPrecision" transform="matrix(1,0,0,1,-1553,-522)" stroke-linecap="butt">
      <path fill="none" d="M1553.3894 548.4622 L1580.3894 548.4622 L1583.3894 556.4622 L1580.3894 564.4622 L1553.3894 564.4622 L1556.3894 556.4622 Z" fill-rule="evenodd" clip-path="url(#clipPath2)"/>
    </g>
    <g stroke-linecap="butt" transform="matrix(1,0,0,1,-1553,-522)" fill="blue" text-rendering="geometricPrecision" font-family="'Arial'" shape-rendering="geometricPrecision" stroke="blue" font-weight="bold" stroke-miterlimit="1.45">
      <text x="1565.0525" xml:space="preserve" y="560.6224" clip-path="url(#clipPath2)" stroke="none">x</text>
    </g>
    <g fill="rgb(255,204,0)" text-rendering="geometricPrecision" shape-rendering="geometricPrecision" transform="matrix(1,0,0,1,-1553,-522)" stroke="rgb(255,204,0)">
      <path d="M1832.4626 669.3998 L1859.4626 669.3998 L1862.4626 677.3998 L1859.4626 685.3998 L1832.4626 685.3998 L1835.4626 677.3998 Z" fill-rule="evenodd" clip-path="url(#clipPath2)" stroke="none"/>
    </g>
    <g text-rendering="geometricPrecision" stroke-miterlimit="1.45" shape-rendering="geometricPrecision" transform="matrix(1,0,0,1,-1553,-522)" stroke-linecap="butt">
      <path fill="none" d="M1832.4626 669.3998 L1859.4626 669.3998 L1862.4626 677.3998 L1859.4626 685.3998 L1832.4626 685.3998 L1835.4626 677.3998 Z" fill-rule="evenodd" clip-path="url(#clipPath2)"/>
    </g>
    <g stroke-linecap="butt" transform="matrix(1,0,0,1,-1553,-522)" fill="blue" text-rendering="geometricPrecision" font-family="'Arial'" shape-rendering="geometricPrecision" stroke="blue" font-weight="bold" stroke-miterlimit="1.45">
      <text x="1844.1256" xml:space="preserve" y="681.56" clip-path="url(#clipPath2)" stroke="none">y</text>
      <text x="1711.9413" xml:space="preserve" y="674.217" clip-path="url(#clipPath2)" stroke="none">sum</text>
      <text x="1646.4105" xml:space="preserve" y="621.6082" clip-path="url(#clipPath2)" stroke="none">s0</text>
      <text x="1802.5115" xml:space="preserve" y="621.6082" clip-path="url(#clipPath2)" stroke="none">s2</text>
    </g>
    <g text-rendering="geometricPrecision" stroke-miterlimit="1.45" shape-rendering="geometricPrecision" transform="matrix(1,0,0,1,-1553,-522)" stroke-linecap="butt">
      <path fill="none" d="M1749.3318 556.4622 L1759.7782 556.4622" clip-path="url(#clipPath2)"/>
      <path d="M1767.7782 556.4622 L1755.7782 551.4622 L1758.7782 556.4622 L1755.7782 561.4622 Z" clip-path="url(#clipPath2)" stroke="none"/>
      <path fill="none" d="M1663.2318 556.4622 L1675.5085 556.4622 L1675.5085 599.9232 L1666.2267 599.9232" clip-path="url(#clipPath2)"/>
      <path d="M1658.2267 599.9232 L1670.2267 604.9232 L1667.2267 599.9232 L1670.2267 594.9232 Z" clip-path="url(#clipPath2)" stroke="none"/>
      <path fill="none" d="M1647.2318 626.292 L1693.3083 626.292 L1693.3083 556.4622 L1704.3318 556.4622" clip-path="url(#clipPath2)"/>
      <path d="M1639.2318 626.292 C1639.2318 624.0828 1641.0227 622.292 1643.2318 622.292 C1645.4409 622.292 1647.2318 624.0828 1647.2318 626.292 C1647.2318 628.5012 1645.4409 630.292 1643.2318 630.292 C1641.0227 630.292 1639.2318 628.5012 1639.2318 626.292 Z" clip-path="url(#clipPath2)" stroke="none"/>
      <path d="M1712.3318 556.4622 L1700.3318 551.4622 L1703.3318 556.4622 L1700.3318 561.4622 Z" clip-path="url(#clipPath2)" stroke="none"/>
      <path fill="none" d="M1643.2318 614.912 L1643.2318 636.2081 L1687.4175 648.9435" clip-path="url(#clipPath2)"/>
      <path d="M1695.1045 651.1592 L1684.9586 643.0313 L1686.4565 648.6666 L1682.1891 652.6402 Z" clip-path="url(#clipPath2)" stroke="none"/>
      <path fill="none" d="M1804.7782 556.4622 L1817.7185 556.4622 L1817.7185 627.2755 L1726.5592 649.645" clip-path="url(#clipPath2)"/>
      <path d="M1718.7897 651.5516 L1731.6355 653.5477 L1727.5304 649.4067 L1729.2523 643.8358 Z" clip-path="url(#clipPath2)" stroke="none"/>
      <path fill="none" d="M1706.7318 669.4869 L1706.7318 677.3998 L1743.7611 677.3998" clip-path="url(#clipPath2)"/>
      <path d="M1751.7611 677.3998 L1739.7611 672.3998 L1742.7611 677.3998 L1739.7611 682.3998 Z" clip-path="url(#clipPath2)" stroke="none"/>
      <path fill="none" d="M1796.131 654.2084 L1781.4248 665.8093" clip-path="url(#clipPath2)"/>
      <path d="M1775.1438 670.764 L1787.662 667.2574 L1782.2098 665.1899 L1781.4685 659.4062 Z" clip-path="url(#clipPath2)" stroke="none"/>
      <path fill="none" d="M1583.3568 556.4622 L1612.3054 556.4622 L1612.3054 599.9232 L1620.2216 599.9232" clip-path="url(#clipPath2)"/>
      <path d="M1628.2216 599.9232 L1616.2216 594.9232 L1619.2216 599.9232 L1616.2216 604.9232 Z" clip-path="url(#clipPath2)" stroke="none"/>
      <path fill="none" d="M1583.4119 556.4622 L1618.2318 556.4622" clip-path="url(#clipPath2)"/>
      <path d="M1626.2318 556.4622 L1614.2318 551.4622 L1617.2318 556.4622 L1614.2318 561.4622 Z" clip-path="url(#clipPath2)" stroke="none"/>
      <path fill="none" d="M1781.7506 677.3998 L1827.4945 677.3998" clip-path="url(#clipPath2)"/>
      <path d="M1835.4945 677.3998 L1823.4945 672.3998 L1826.4945 677.3998 L1823.4945 682.3998 Z" clip-path="url(#clipPath2)" stroke="none"/>
    </g>
  </g>
</svg>
