<?xml version="1.0" encoding="UTF-8"?><svg xmlns="http://www.w3.org/2000/svg" xmlns:xlink="http://www.w3.org/1999/xlink" fill-opacity="1" color-rendering="auto" color-interpolation="auto" text-rendering="auto" stroke="black" stroke-linecap="square" width="310" stroke-miterlimit="10" shape-rendering="auto" stroke-opacity="1" fill="black" stroke-dasharray="none" font-weight="normal" stroke-width="1" height="183" font-family="'Dialog'" font-style="normal" stroke-linejoin="miter" font-size="12px" stroke-dashoffset="0" image-rendering="auto">
  <!--Generated by ySVG 2.5-->
  <defs id="genericDefs"/>
  <g>
    <defs id="defs1">
      <clipPath clipPathUnits="userSpaceOnUse" id="clipPath1">
        <path d="M0 0 L310 0 L310 183 L0 183 L0 0 Z"/>
      </clipPath>
      <clipPath clipPathUnits="userSpaceOnUse" id="clipPath2">
        <path d="M1104 522 L1414 522 L1414 705 L1104 705 L1104 522 Z"/>
      </clipPath>
    </defs>
    <g fill="rgb(204,255,255)" text-rendering="geometricPrecision" shape-rendering="geometricPrecision" transform="matrix(1,0,0,1,-1104,-522)" stroke="rgb(204,255,255)">
      <rect x="1118.8425" width="278.6848" height="180.48" y="522" clip-path="url(#clipPath2)" stroke="none"/>
    </g>
    <g text-rendering="geometricPrecision" stroke-miterlimit="1.45" stroke-width="2" shape-rendering="geometricPrecision" transform="matrix(1,0,0,1,-1104,-522)" stroke-linecap="butt">
      <rect fill="none" x="1118.8425" width="278.6848" height="180.48" y="522" clip-path="url(#clipPath2)"/>
    </g>
    <g fill="rgb(255,204,0)" text-rendering="geometricPrecision" shape-rendering="geometricPrecision" transform="matrix(1,0,0,1,-1104,-522)" stroke="rgb(255,204,0)">
      <rect x="1177.6849" width="37" height="36" y="538.4622" clip-path="url(#clipPath2)" stroke="none"/>
    </g>
    <g text-rendering="geometricPrecision" stroke-miterlimit="1.45" shape-rendering="geometricPrecision" transform="matrix(1,0,0,1,-1104,-522)" stroke-linecap="butt">
      <rect fill="none" x="1177.6849" width="37" height="36" y="538.4622" clip-path="url(#clipPath2)"/>
      <text x="1182.175" xml:space="preserve" y="553.9193" clip-path="url(#clipPath2)" font-family="'Arial'" stroke="none">State</text>
      <text x="1181.6741" xml:space="preserve" y="567.3255" clip-path="url(#clipPath2)" font-family="'Arial'" stroke="none">init=0</text>
    </g>
    <g fill="rgb(255,204,0)" text-rendering="geometricPrecision" shape-rendering="geometricPrecision" transform="matrix(1,0,0,1,-1104,-522)" stroke="rgb(255,204,0)">
      <rect x="1239.6849" width="37" height="36" y="538.4622" clip-path="url(#clipPath2)" stroke="none"/>
    </g>
    <g text-rendering="geometricPrecision" stroke-miterlimit="1.45" shape-rendering="geometricPrecision" transform="matrix(1,0,0,1,-1104,-522)" stroke-linecap="butt">
      <rect fill="none" x="1239.6849" width="37" height="36" y="538.4622" clip-path="url(#clipPath2)"/>
      <text x="1244.175" xml:space="preserve" y="553.9193" clip-path="url(#clipPath2)" font-family="'Arial'" stroke="none">State</text>
      <text x="1243.6741" xml:space="preserve" y="567.3255" clip-path="url(#clipPath2)" font-family="'Arial'" stroke="none">init=0</text>
    </g>
    <g fill="rgb(255,204,0)" text-rendering="geometricPrecision" shape-rendering="geometricPrecision" transform="matrix(1,0,0,1,-1104,-522)" stroke="rgb(255,204,0)">
      <rect x="1301.6849" width="37" height="36" y="538.4622" clip-path="url(#clipPath2)" stroke="none"/>
    </g>
    <g text-rendering="geometricPrecision" stroke-miterlimit="1.45" shape-rendering="geometricPrecision" transform="matrix(1,0,0,1,-1104,-522)" stroke-linecap="butt">
      <rect fill="none" x="1301.6849" width="37" height="36" y="538.4622" clip-path="url(#clipPath2)"/>
      <text x="1306.175" xml:space="preserve" y="553.9193" clip-path="url(#clipPath2)" font-family="'Arial'" stroke="none">State</text>
      <text x="1305.6741" xml:space="preserve" y="567.3255" clip-path="url(#clipPath2)" font-family="'Arial'" stroke="none">init=0</text>
    </g>
    <g fill="rgb(255,204,0)" text-rendering="geometricPrecision" shape-rendering="geometricPrecision" transform="matrix(1,0,0,1,-1104,-522)" stroke="rgb(255,204,0)">
      <path d="M1179.6848 599.9232 L1194.6848 584.9232 L1209.6848 599.9232 L1194.6848 614.9232 Z" fill-rule="evenodd" clip-path="url(#clipPath2)" stroke="none"/>
    </g>
    <g text-rendering="geometricPrecision" stroke-miterlimit="1.45" shape-rendering="geometricPrecision" transform="matrix(1,0,0,1,-1104,-522)" stroke-linecap="butt">
      <path fill="none" d="M1179.6848 599.9232 L1194.6848 584.9232 L1209.6848 599.9232 L1194.6848 614.9232 Z" fill-rule="evenodd" clip-path="url(#clipPath2)"/>
      <text x="1188.3655" xml:space="preserve" y="604.0834" clip-path="url(#clipPath2)" font-family="'Arial'" stroke="none">+^</text>
    </g>
    <g fill="rgb(255,204,0)" text-rendering="geometricPrecision" shape-rendering="geometricPrecision" transform="matrix(1,0,0,1,-1104,-522)" stroke="rgb(255,204,0)">
      <path d="M1305.1848 599.9232 L1320.1848 584.9232 L1335.1848 599.9232 L1320.1848 614.9232 Z" fill-rule="evenodd" clip-path="url(#clipPath2)" stroke="none"/>
    </g>
    <g text-rendering="geometricPrecision" stroke-miterlimit="1.45" shape-rendering="geometricPrecision" transform="matrix(1,0,0,1,-1104,-522)" stroke-linecap="butt">
      <path fill="none" d="M1305.1848 599.9232 L1320.1848 584.9232 L1335.1848 599.9232 L1320.1848 614.9232 Z" fill-rule="evenodd" clip-path="url(#clipPath2)"/>
      <text x="1313.8655" xml:space="preserve" y="604.0834" clip-path="url(#clipPath2)" font-family="'Arial'" stroke="none">+^</text>
    </g>
    <g fill="rgb(255,204,0)" text-rendering="geometricPrecision" shape-rendering="geometricPrecision" transform="matrix(1,0,0,1,-1104,-522)" stroke="rgb(255,204,0)">
      <path d="M1243.1848 654.5104 L1258.1848 639.5104 L1273.1848 654.5104 L1258.1848 669.5104 Z" fill-rule="evenodd" clip-path="url(#clipPath2)" stroke="none"/>
    </g>
    <g text-rendering="geometricPrecision" stroke-miterlimit="1.45" shape-rendering="geometricPrecision" transform="matrix(1,0,0,1,-1104,-522)" stroke-linecap="butt">
      <path fill="none" d="M1243.1848 654.5104 L1258.1848 639.5104 L1273.1848 654.5104 L1258.1848 669.5104 Z" fill-rule="evenodd" clip-path="url(#clipPath2)"/>
      <text x="1251.8655" xml:space="preserve" y="658.6706" clip-path="url(#clipPath2)" font-family="'Arial'" stroke="none">+^</text>
    </g>
    <g fill="rgb(255,204,0)" text-rendering="geometricPrecision" shape-rendering="geometricPrecision" transform="matrix(1,0,0,1,-1104,-522)" stroke="rgb(255,204,0)">
      <path d="M1303.1848 677.3998 L1318.1848 662.3998 L1333.1848 677.3998 L1318.1848 692.3998 Z" fill-rule="evenodd" clip-path="url(#clipPath2)" stroke="none"/>
    </g>
    <g text-rendering="geometricPrecision" stroke-miterlimit="1.45" shape-rendering="geometricPrecision" transform="matrix(1,0,0,1,-1104,-522)" stroke-linecap="butt">
      <path fill="none" d="M1303.1848 677.3998 L1318.1848 662.3998 L1333.1848 677.3998 L1318.1848 692.3998 Z" fill-rule="evenodd" clip-path="url(#clipPath2)"/>
      <text x="1316.5178" xml:space="preserve" y="681.56" clip-path="url(#clipPath2)" font-family="'Arial'" stroke="none">/</text>
    </g>
    <g fill="rgb(255,204,0)" text-rendering="geometricPrecision" shape-rendering="geometricPrecision" transform="matrix(1,0,0,1,-1104,-522)" stroke="rgb(255,204,0)">
      <ellipse rx="7.6272" ry="8" clip-path="url(#clipPath2)" cx="1353.6797" cy="649.3998" stroke="none"/>
    </g>
    <g text-rendering="geometricPrecision" stroke-miterlimit="1.45" shape-rendering="geometricPrecision" transform="matrix(1,0,0,1,-1104,-522)" stroke-linecap="butt">
      <ellipse rx="7.6272" fill="none" ry="8" clip-path="url(#clipPath2)" cx="1353.6797" cy="649.3998"/>
      <text x="1350.3428" xml:space="preserve" y="653.56" clip-path="url(#clipPath2)" font-family="'Arial'" stroke="none">4</text>
      <text x="1120.3572" font-size="30px" y="695.7034" clip-path="url(#clipPath2)" font-family="'Arial'" stroke="none" xml:space="preserve">SMA_DS</text>
    </g>
    <g fill="rgb(255,204,0)" text-rendering="geometricPrecision" shape-rendering="geometricPrecision" transform="matrix(1,0,0,1,-1104,-522)" stroke="rgb(255,204,0)">
      <path d="M1104.8424 548.4622 L1131.8424 548.4622 L1134.8424 556.4622 L1131.8424 564.4622 L1104.8424 564.4622 L1107.8424 556.4622 Z" fill-rule="evenodd" clip-path="url(#clipPath2)" stroke="none"/>
    </g>
    <g text-rendering="geometricPrecision" stroke-miterlimit="1.45" shape-rendering="geometricPrecision" transform="matrix(1,0,0,1,-1104,-522)" stroke-linecap="butt">
      <path fill="none" d="M1104.8424 548.4622 L1131.8424 548.4622 L1134.8424 556.4622 L1131.8424 564.4622 L1104.8424 564.4622 L1107.8424 556.4622 Z" fill-rule="evenodd" clip-path="url(#clipPath2)"/>
    </g>
    <g stroke-linecap="butt" transform="matrix(1,0,0,1,-1104,-522)" fill="blue" text-rendering="geometricPrecision" font-family="'Arial'" shape-rendering="geometricPrecision" stroke="blue" font-weight="bold" stroke-miterlimit="1.45">
      <text x="1116.5055" xml:space="preserve" y="560.6224" clip-path="url(#clipPath2)" stroke="none">x</text>
    </g>
    <g fill="rgb(255,204,0)" text-rendering="geometricPrecision" shape-rendering="geometricPrecision" transform="matrix(1,0,0,1,-1104,-522)" stroke="rgb(255,204,0)">
      <path d="M1383.9156 669.3998 L1410.9156 669.3998 L1413.9156 677.3998 L1410.9156 685.3998 L1383.9156 685.3998 L1386.9156 677.3998 Z" fill-rule="evenodd" clip-path="url(#clipPath2)" stroke="none"/>
    </g>
    <g text-rendering="geometricPrecision" stroke-miterlimit="1.45" shape-rendering="geometricPrecision" transform="matrix(1,0,0,1,-1104,-522)" stroke-linecap="butt">
      <path fill="none" d="M1383.9156 669.3998 L1410.9156 669.3998 L1413.9156 677.3998 L1410.9156 685.3998 L1383.9156 685.3998 L1386.9156 677.3998 Z" fill-rule="evenodd" clip-path="url(#clipPath2)"/>
    </g>
    <g stroke-linecap="butt" transform="matrix(1,0,0,1,-1104,-522)" fill="blue" text-rendering="geometricPrecision" font-family="'Arial'" shape-rendering="geometricPrecision" stroke="blue" font-weight="bold" stroke-miterlimit="1.45">
      <text x="1395.5787" xml:space="preserve" y="681.56" clip-path="url(#clipPath2)" stroke="none">y</text>
      <text x="1263.3944" xml:space="preserve" y="674.217" clip-path="url(#clipPath2)" stroke="none">sum</text>
      <text x="1197.5544" xml:space="preserve" y="621.6082" clip-path="url(#clipPath2)" stroke="none">s0</text>
      <text x="1302.9448" xml:space="preserve" y="621.6082" clip-path="url(#clipPath2)" stroke="none">s2</text>
    </g>
    <g text-rendering="geometricPrecision" stroke-miterlimit="1.45" shape-rendering="geometricPrecision" transform="matrix(1,0,0,1,-1104,-522)" stroke-linecap="butt">
      <path fill="none" d="M1214.6848 556.4622 L1231.6848 556.4622" clip-path="url(#clipPath2)"/>
      <path d="M1239.6848 556.4622 L1227.6848 551.4622 L1230.6848 556.4622 L1227.6848 561.4622 Z" clip-path="url(#clipPath2)" stroke="none"/>
      <path fill="none" d="M1276.6848 556.4622 L1293.6848 556.4622" clip-path="url(#clipPath2)"/>
      <path d="M1301.6848 556.4622 L1289.6848 551.4622 L1292.6848 556.4622 L1289.6848 561.4622 Z" clip-path="url(#clipPath2)" stroke="none"/>
      <path fill="none" d="M1214.6848 556.4622 L1226.9617 556.4622 L1226.9617 599.9232 L1217.6798 599.9232" clip-path="url(#clipPath2)"/>
      <path d="M1209.6798 599.9232 L1221.6798 604.9232 L1218.6798 599.9232 L1221.6798 594.9232 Z" clip-path="url(#clipPath2)" stroke="none"/>
      <path fill="none" d="M1276.6848 556.4622 L1287.4576 556.4622 L1287.4576 599.9232 L1297.1956 599.9232" clip-path="url(#clipPath2)"/>
      <path d="M1305.1956 599.9232 L1293.1956 594.9232 L1296.1956 599.9232 L1293.1956 604.9232 Z" clip-path="url(#clipPath2)" stroke="none"/>
      <path fill="none" d="M1338.6848 556.4622 L1352.1744 556.4622 L1352.1744 599.9232 L1343.2112 599.9232" clip-path="url(#clipPath2)"/>
      <path d="M1335.2112 599.9232 L1347.2112 604.9232 L1344.2112 599.9232 L1347.2112 594.9232 Z" clip-path="url(#clipPath2)" stroke="none"/>
      <path fill="none" d="M1194.6848 614.912 L1194.6848 636.2081 L1238.8706 648.9435" clip-path="url(#clipPath2)"/>
      <path d="M1246.5576 651.1592 L1236.4119 643.0313 L1237.9097 648.6666 L1233.6422 652.6401 Z" clip-path="url(#clipPath2)" stroke="none"/>
      <path fill="none" d="M1320.1848 614.912 L1320.1848 636.2081 L1277.4523 648.8227" clip-path="url(#clipPath2)"/>
      <path d="M1269.7797 651.0877 L1282.7042 652.4857 L1278.4114 648.5396 L1279.873 642.8948 Z" clip-path="url(#clipPath2)" stroke="none"/>
      <path fill="none" d="M1258.1848 669.4869 L1258.1848 677.3998 L1295.1555 677.3998" clip-path="url(#clipPath2)"/>
      <path d="M1303.1555 677.3998 L1291.1555 672.3998 L1294.1555 677.3998 L1291.1555 682.3998 Z" clip-path="url(#clipPath2)" stroke="none"/>
      <path fill="none" d="M1347.584 654.2084 L1332.8779 665.8093" clip-path="url(#clipPath2)"/>
      <path d="M1326.5969 670.764 L1339.1151 667.2574 L1333.663 665.1899 L1332.9216 659.4062 Z" clip-path="url(#clipPath2)" stroke="none"/>
      <path fill="none" d="M1134.8099 556.4622 L1163.7584 556.4622 L1163.7584 599.9232 L1171.6747 599.9232" clip-path="url(#clipPath2)"/>
      <path d="M1179.6747 599.9232 L1167.6747 594.9232 L1170.6747 599.9232 L1167.6747 604.9232 Z" clip-path="url(#clipPath2)" stroke="none"/>
      <path fill="none" d="M1134.8649 556.4622 L1169.6848 556.4622" clip-path="url(#clipPath2)"/>
      <path d="M1177.6848 556.4622 L1165.6848 551.4622 L1168.6848 556.4622 L1165.6848 561.4622 Z" clip-path="url(#clipPath2)" stroke="none"/>
      <path fill="none" d="M1333.2036 677.3998 L1378.9476 677.3998" clip-path="url(#clipPath2)"/>
      <path d="M1386.9476 677.3998 L1374.9476 672.3998 L1377.9476 677.3998 L1374.9476 682.3998 Z" clip-path="url(#clipPath2)" stroke="none"/>
    </g>
  </g>
</svg>
